<?xml version="1.0" encoding="UTF-8" standalone="no"?>
<svg
   data-v-cffac1b1=""
   version="1.1"
   id="Layer_1"
   x="0px"
   y="0px"
   width="26.400002"
   height="51.599998"
   viewBox="0 0 44.000003 85.999997"
   enable-background="new 0 0 100 100"
   xml:space="preserve"
   sodipodi:docname="phoneColection5.svg"
   inkscape:export-filename="phoneColection5.png"
   inkscape:export-xdpi="96"
   inkscape:export-ydpi="96"
   inkscape:version="1.3 (0e150ed6c4, 2023-07-21)"
   xmlns:inkscape="http://www.inkscape.org/namespaces/inkscape"
   xmlns:sodipodi="http://sodipodi.sourceforge.net/DTD/sodipodi-0.dtd"
   xmlns="http://www.w3.org/2000/svg"
   xmlns:svg="http://www.w3.org/2000/svg"><defs
     id="defs3" /><sodipodi:namedview
     id="namedview3"
     pagecolor="#ffffff"
     bordercolor="#000000"
     borderopacity="0.25"
     inkscape:showpageshadow="2"
     inkscape:pageopacity="0.0"
     inkscape:pagecheckerboard="0"
     inkscape:deskcolor="#d1d1d1"
     inkscape:export-bgcolor="#ffffff0c"
     inkscape:zoom="15.755814"
     inkscape:cx="13.169741"
     inkscape:cy="25.799999"
     inkscape:window-width="1920"
     inkscape:window-height="1009"
     inkscape:window-x="-8"
     inkscape:window-y="-8"
     inkscape:window-maximized="1"
     inkscape:current-layer="Layer_1" /><g
     data-v-cffac1b1=""
     id="g3"
     transform="translate(-27.999998,-6.9999995)"><path
       data-v-cffac1b1=""
       fill="none"
       d="m 63.5,10 h -27 C 33.467,10 31,12.467 31,15.5 v 69 c 0,3.032 2.467,5.5 5.5,5.5 h 27 c 3.032,0 5.5,-2.468 5.5,-5.5 v -69 C 69,12.467 66.532,10 63.5,10 Z M 36.71,21.164 c -2.333,0 -4.231,-1.898 -4.231,-4.231 0,-2.333 1.898,-4.232 4.231,-4.232 2.333,0 4.231,1.898 4.231,4.232 10e-4,2.332 -1.898,4.231 -4.231,4.231 z m 7.404,-2.451 c -0.83,0 -1.504,-0.673 -1.504,-1.504 0,-0.831 0.674,-1.504 1.504,-1.504 0.83,0 1.504,0.673 1.504,1.504 0,0.831 -0.674,1.504 -1.504,1.504 z"
       id="path1" /><circle
       data-v-cffac1b1=""
       fill="none"
       cx="36.709999"
       cy="16.931999"
       r="1.232"
       id="circle1" /><path
       data-v-cffac1b1=""
       fill="#3c3a40"
       d="m 63.5,7 h -27 C 31.813,7 28,10.813 28,15.5 v 69 c 0,4.687 3.813,8.5 8.5,8.5 h 27 c 4.687,0 8.5,-3.813 8.5,-8.5 v -69 C 72,10.813 68.187,7 63.5,7 Z M 69,84.5 c 0,3.032 -2.468,5.5 -5.5,5.5 h -27 C 33.467,90 31,87.532 31,84.5 v -69 C 31,12.467 33.467,10 36.5,10 h 27 c 3.032,0 5.5,2.467 5.5,5.5 z"
       id="path2" /><path
       data-v-cffac1b1=""
       fill="#3c3a40"
       d="m 36.71,12.7 c -2.333,0 -4.231,1.898 -4.231,4.232 0,2.333 1.898,4.231 4.231,4.231 2.333,0 4.231,-1.898 4.231,-4.231 C 40.942,14.599 39.043,12.7 36.71,12.7 Z m 0,5.464 c -0.679,0 -1.231,-0.552 -1.231,-1.231 0,-0.679 0.552,-1.233 1.231,-1.233 0.679,0 1.231,0.553 1.231,1.232 0,0.679 -0.551,1.232 -1.231,1.232 z"
       id="path3" /><circle
       data-v-cffac1b1=""
       fill="#3c3a40"
       cx="44.113998"
       cy="17.209"
       r="1.5039999"
       id="circle3" /></g><rect
     style="fill:#3c3a40;fill-opacity:1;stroke-width:1.59935"
     id="rect11"
     width="27.102091"
     height="27.894222"
     x="8.580575"
     y="29.435411"
     ry="3.3849924"
     rx="3.702337" /><rect
     style="fill:#000000;fill-opacity:0;stroke-width:1.47026"
     id="rect11-3"
     width="25.092251"
     height="25.461258"
     x="13.333333"
     y="25" /><path
     style="fill:#000000;fill-opacity:0;stroke-width:0.105781"
     d="m 7.2299106,82.78216 c -1.9378718,-0.470058 -3.640271,-2.223053 -4.045363,-4.165597 -0.166155,-0.796766 -0.166155,-70.4363607 0,-71.2331277 0.4170115,-1.9997002 2.1991875,-3.7818762 4.1988877,-4.1988877 0.7894445,-0.1646284 28.4486057,-0.1646284 29.2380487,0 1.45434,0.3032838 3.095375,1.5608698 3.712428,2.8449727 0.649795,1.3522383 0.603357,-1.4932135 0.603357,36.9704787 0,38.463694 0.04643,35.618241 -0.603357,36.970479 -0.617053,1.284104 -2.258088,2.54169 -3.712428,2.844974 -0.851187,0.177503 -28.6523635,0.146016 -29.3915734,-0.0333 z M 36.706027,31.787207 V 19.04059 H 24.11808 11.530135 V 31.787207 44.533824 H 24.11808 36.706027 Z M 10.492657,13.819734 C 11.77906,13.201582 12.658901,12.053176 12.916283,10.656312 13.16761,9.2923137 12.670007,7.8003853 11.643497,6.8402055 9.5038849,4.8388488 6.0792358,5.4909459 4.8246071,8.1386097 4.5201174,8.781179 4.4960249,8.9151903 4.5001404,9.9434194 c 0.00388,0.9715306 0.03943,1.1865116 0.283658,1.7157336 0.3275694,0.709819 1.1027056,1.576529 1.7483546,1.954905 0.767595,0.44984 1.2635553,0.56081 2.3534558,0.526578 0.8371321,-0.02629 1.1054552,-0.07987 1.6070482,-0.320902 z m 6.443115,-2.318153 c 1.619663,-1.082005 0.209667,-3.4942398 -1.55342,-2.6576012 -1.042835,0.4948579 -1.053554,2.2127402 -0.01699,2.7237442 0.500371,0.246673 1.142652,0.219622 1.570415,-0.06614 z"
     id="path4" /><path
     style="fill:#000000;fill-opacity:0;stroke-width:0.105781"
     d="m 7.2299106,82.78216 c -1.9378718,-0.470058 -3.640271,-2.223053 -4.045363,-4.165597 -0.166155,-0.796766 -0.166155,-70.4363607 0,-71.2331277 0.4170115,-1.9997002 2.1991875,-3.7818762 4.1988877,-4.1988877 0.7894445,-0.1646284 28.4486057,-0.1646284 29.2380487,0 1.45434,0.3032838 3.095375,1.5608698 3.712428,2.8449727 0.649795,1.3522383 0.603357,-1.4932135 0.603357,36.9704787 0,38.463694 0.04643,35.618241 -0.603357,36.970479 -0.617053,1.284104 -2.258088,2.54169 -3.712428,2.844974 -0.851187,0.177503 -28.6523635,0.146016 -29.3915734,-0.0333 z M 36.706027,31.787207 V 19.04059 H 24.11808 11.530135 V 31.787207 44.533824 H 24.11808 36.706027 Z M 10.492657,13.819734 C 11.77906,13.201582 12.658901,12.053176 12.916283,10.656312 13.16761,9.2923137 12.670007,7.8003853 11.643497,6.8402055 9.5038849,4.8388488 6.0792358,5.4909459 4.8246071,8.1386097 4.5201174,8.781179 4.4960249,8.9151903 4.5001404,9.9434194 c 0.00388,0.9715306 0.03943,1.1865116 0.283658,1.7157336 0.3275694,0.709819 1.1027056,1.576529 1.7483546,1.954905 0.767595,0.44984 1.2635553,0.56081 2.3534558,0.526578 0.8371321,-0.02629 1.1054552,-0.07987 1.6070482,-0.320902 z m 6.443115,-2.318153 c 1.619663,-1.082005 0.209667,-3.4942398 -1.55342,-2.6576012 -1.042835,0.4948579 -1.053554,2.2127402 -0.01699,2.7237442 0.500371,0.246673 1.142652,0.219622 1.570415,-0.06614 z"
     id="path5" /><rect
     style="fill:#f9f9f9;fill-opacity:1;stroke-width:1.27647"
     id="rect11-5"
     width="22.024599"
     height="21.864702"
     x="11.119321"
     y="32.450172"
     ry="2.2214007"
     rx="2.5387442" /></svg>
