<?xml version="1.0" encoding="UTF-8" standalone="no"?>
<svg
   data-v-cffac1b1=""
   version="1.1"
   id="Layer_1"
   x="0px"
   y="0px"
   width="26.400002"
   height="51.599998"
   viewBox="0 0 44.000003 85.999997"
   enable-background="new 0 0 100 100"
   xml:space="preserve"
   sodipodi:docname="phoneColection4.svg"
   inkscape:export-filename="phoneColection4.png"
   inkscape:export-xdpi="96"
   inkscape:export-ydpi="96"
   inkscape:version="1.3 (0e150ed6c4, 2023-07-21)"
   xmlns:inkscape="http://www.inkscape.org/namespaces/inkscape"
   xmlns:sodipodi="http://sodipodi.sourceforge.net/DTD/sodipodi-0.dtd"
   xmlns="http://www.w3.org/2000/svg"
   xmlns:svg="http://www.w3.org/2000/svg"><defs
     id="defs3" /><sodipodi:namedview
     id="namedview3"
     pagecolor="#ffffff"
     bordercolor="#000000"
     borderopacity="0.25"
     inkscape:showpageshadow="2"
     inkscape:pageopacity="0.0"
     inkscape:pagecheckerboard="0"
     inkscape:deskcolor="#d1d1d1"
     inkscape:zoom="15.755814"
     inkscape:cx="13.169741"
     inkscape:cy="25.799999"
     inkscape:window-width="1920"
     inkscape:window-height="1009"
     inkscape:window-x="-8"
     inkscape:window-y="-8"
     inkscape:window-maximized="1"
     inkscape:current-layer="Layer_1" /><g
     data-v-cffac1b1=""
     id="g3"
     transform="translate(-27.999998,-6.9999995)"><path
       data-v-cffac1b1=""
       fill="none"
       d="m 63.5,10 h -27 C 33.467,10 31,12.467 31,15.5 v 69 c 0,3.032 2.467,5.5 5.5,5.5 h 27 c 3.032,0 5.5,-2.468 5.5,-5.5 v -69 C 69,12.467 66.532,10 63.5,10 Z M 36.71,21.164 c -2.333,0 -4.231,-1.898 -4.231,-4.231 0,-2.333 1.898,-4.232 4.231,-4.232 2.333,0 4.231,1.898 4.231,4.232 10e-4,2.332 -1.898,4.231 -4.231,4.231 z m 7.404,-2.451 c -0.83,0 -1.504,-0.673 -1.504,-1.504 0,-0.831 0.674,-1.504 1.504,-1.504 0.83,0 1.504,0.673 1.504,1.504 0,0.831 -0.674,1.504 -1.504,1.504 z"
       id="path1" /><circle
       data-v-cffac1b1=""
       fill="none"
       cx="36.709999"
       cy="16.931999"
       r="1.232"
       id="circle1" /><path
       data-v-cffac1b1=""
       fill="#3c3a40"
       d="m 63.5,7 h -27 C 31.813,7 28,10.813 28,15.5 v 69 c 0,4.687 3.813,8.5 8.5,8.5 h 27 c 4.687,0 8.5,-3.813 8.5,-8.5 v -69 C 72,10.813 68.187,7 63.5,7 Z M 69,84.5 c 0,3.032 -2.468,5.5 -5.5,5.5 h -27 C 33.467,90 31,87.532 31,84.5 v -69 C 31,12.467 33.467,10 36.5,10 h 27 c 3.032,0 5.5,2.467 5.5,5.5 z"
       id="path2" /><path
       data-v-cffac1b1=""
       fill="#3c3a40"
       d="m 36.71,12.7 c -2.333,0 -4.231,1.898 -4.231,4.232 0,2.333 1.898,4.231 4.231,4.231 2.333,0 4.231,-1.898 4.231,-4.231 C 40.942,14.599 39.043,12.7 36.71,12.7 Z m 0,5.464 c -0.679,0 -1.231,-0.552 -1.231,-1.231 0,-0.679 0.552,-1.233 1.231,-1.233 0.679,0 1.231,0.553 1.231,1.232 0,0.679 -0.551,1.232 -1.231,1.232 z"
       id="path3" /><circle
       data-v-cffac1b1=""
       fill="#3c3a40"
       cx="44.113998"
       cy="17.209"
       r="1.5039999"
       id="circle3" /></g><rect
     style="fill:#3c3a40;fill-opacity:1;stroke-width:1.66667"
     id="rect3"
     width="40.344406"
     height="3.5670357"
     x="1.3972969"
     y="23.0123" /><rect
     style="fill:#3c3a40;fill-opacity:1;stroke-width:1.66667"
     id="rect3-5"
     width="40.344406"
     height="3.5670357"
     x="1.2988949"
     y="43.633453" /><rect
     style="fill:#3c3a40;fill-opacity:1;stroke-width:1.66667"
     id="rect3-9"
     width="40.344406"
     height="3.5670357"
     x="1.4895477"
     y="63.498154" /></svg>
