<svg xmlns="http://www.w3.org/2000/svg" viewBox="0 0 512 512"><title>Zoom_In</title><g id="Zoom_In" data-name="Zoom In"><g id="Zoom_In-2" data-name="Zoom In"><path d="M243.1507,190.6618a49.869,49.869,0,1,0,49.86,49.869A49.8651,49.8651,0,0,0,243.1507,190.6618Zm24.09,61.6644H252.59v14.6511a9.4482,9.4482,0,1,1-18.8964,0V252.3262h-14.643a9.4482,9.4482,0,1,1,0-18.8964h14.643v-14.652a9.4482,9.4482,0,1,1,18.8964,0V233.43h14.6512a9.4482,9.4482,0,0,1,0,18.8964Z"/><path d="M256,73.82A182.18,182.18,0,1,0,438.18,256C438.18,155.3917,356.6083,73.82,256,73.82Zm91.6262,268.7256a14.7381,14.7381,0,0,1-20.8746,0L285.2851,301.07a73.7725,73.7725,0,1,1,20.3643-21.366l41.9769,41.976A14.7478,14.7478,0,0,1,347.6263,342.5458Z"/></g></g></svg>