<?xml version="1.0" encoding="UTF-8" standalone="no"?>
<!-- Uploaded to: SVG Repo, www.svgrepo.com, Generator: SVG Repo Mixer Tools -->

<svg
   width="800px"
   height="800px"
   viewBox="0 0 24 24"
   fill="none"
   version="1.1"
   id="svg6"
   sodipodi:docname="command-square.svg"
   inkscape:version="1.3 (0e150ed6c4, 2023-07-21)"
   xmlns:inkscape="http://www.inkscape.org/namespaces/inkscape"
   xmlns:sodipodi="http://sodipodi.sourceforge.net/DTD/sodipodi-0.dtd"
   xmlns="http://www.w3.org/2000/svg"
   xmlns:svg="http://www.w3.org/2000/svg">
  <defs
     id="defs6" />
  <sodipodi:namedview
     id="namedview6"
     pagecolor="#ffffff"
     bordercolor="#000000"
     borderopacity="0.25"
     inkscape:showpageshadow="2"
     inkscape:pageopacity="0.0"
     inkscape:pagecheckerboard="0"
     inkscape:deskcolor="#d1d1d1"
     inkscape:zoom="0.97125"
     inkscape:cx="400"
     inkscape:cy="400"
     inkscape:window-width="1920"
     inkscape:window-height="991"
     inkscape:window-x="-9"
     inkscape:window-y="-9"
     inkscape:window-maximized="1"
     inkscape:current-layer="svg6" />
  <path
     opacity="0.4"
     d="M16.1898 2H7.81976C4.17976 2 2.00977 4.17 2.00977 7.81V16.18C2.00977 19.82 4.17976 21.99 7.81976 21.99H16.1898C19.8298 21.99 21.9998 19.82 21.9998 16.18V7.81C21.9998 4.17 19.8298 2 16.1898 2Z"
     fill="#292D32"
     id="path1"
     style="fill:#00abff;fill-opacity:1" />
  <path
     d="M10.7496 14.1498H13.2596C13.7496 14.1498 14.1596 13.7498 14.1596 13.2498V10.7398C14.1596 10.2498 13.7596 9.83984 13.2596 9.83984H10.7496C10.2596 9.83984 9.84961 10.2398 9.84961 10.7398V13.2498C9.84961 13.7498 10.2496 14.1498 10.7496 14.1498Z"
     fill="#292D32"
     id="path2" />
  <path
     d="M7.79999 17.9999C8.78999 17.9999 9.59998 17.1899 9.59998 16.1999V15.3999C9.59998 14.8499 9.14998 14.3999 8.59998 14.3999H7.79999C6.80999 14.3999 6 15.2099 6 16.1999C6 17.1899 6.80999 17.9999 7.79999 17.9999Z"
     fill="#292D32"
     id="path3" />
  <path
     d="M7.79999 9.60001H8.59998C9.14998 9.60001 9.59998 9.15001 9.59998 8.60001V7.79999C9.59998 6.80999 8.78999 6 7.79999 6C6.80999 6 6 6.80999 6 7.79999C6 8.78999 6.80999 9.60001 7.79999 9.60001Z"
     fill="#292D32"
     id="path4" />
  <path
     d="M15.4004 9.60001H16.2004C17.1904 9.60001 18.0004 8.78999 18.0004 7.79999C18.0004 6.80999 17.1904 6 16.2004 6C15.2104 6 14.4004 6.80999 14.4004 7.79999V8.60001C14.4004 9.15001 14.8504 9.60001 15.4004 9.60001Z"
     fill="#292D32"
     id="path5" />
  <path
     d="M16.2004 17.9999C17.1904 17.9999 18.0004 17.1899 18.0004 16.1999C18.0004 15.2099 17.1904 14.3999 16.2004 14.3999H15.4004C14.8504 14.3999 14.4004 14.8499 14.4004 15.3999V16.1999C14.4004 17.1899 15.2104 17.9999 16.2004 17.9999Z"
     fill="#292D32"
     id="path6" />
</svg>
